Coordinates
version=1
nRows=10
nColumns=28
inDegrees=yes

Units are S.I. units (second, meters, Newtons, ...)
Angles are in degrees.

endheader
time	pelvis_tilt	pelvis_list	pelvis_rotation	pelvis_tx	pelvis_ty	pelvis_tz	hip_flexion_r	hip_adduction_r	hip_rotation_r	knee_angle_r	ankle_angle_r	subtalar_angle_r	mtp_angle_r	hip_flexion_l	hip_adduction_l	hip_rotation_l	knee_angle_l	socket_flexion	socket_adduction	socket_rotation	socket_tx	socket_ty	socket_tz	foot_flex	lumbar_extension	lumbar_bending	lumbar_rotation
      0.27083333	     -1.36888314	      2.90107097	      2.11249458	     -0.41621539	      0.98178794	      0.24133895	     16.29026625	     -5.36672099	      2.38149015	    -62.89493834	    -13.81289177	    -16.39315334	     14.78765364	     12.61235168	      5.26107972	     -6.72811279	    -27.77803817	     -5.26739386	     -5.19732598	     11.93729281	      0.00000000	     -0.00571446	      0.00000000	      4.08511802	     -7.16928969	     -5.62827162	     -4.98401395
      0.27500000	     -1.31309387	      2.84190179	      2.15911099	     -0.41079485	      0.98291778	      0.24066585	     16.92983251	     -5.34528859	      2.28231742	    -62.72230454	    -13.65679282	    -16.47313128	     14.76181410	     12.12195327	      5.23296173	     -6.72014629	    -27.73404619	     -5.41631146	     -5.24587051	     11.98972811	      0.00000000	     -0.00513669	      0.00000000	      4.15308758	     -7.26236494	     -5.55261715	     -5.00865060
      0.27916667	     -1.17239376	      2.52556725	      2.17876937	     -0.40492121	      0.98400092	      0.24023702	     17.42542482	     -4.96402743	      2.11132104	    -62.61065279	    -12.00871051	    -17.34504904	     14.46820978	     11.32987456	      4.85490126	     -6.95014512	    -27.16135344	     -5.21634769	     -5.23540915	     12.39256562	      0.00000000	     -0.00554891	      0.00000000	      4.23278502	     -7.33240512	     -5.10950402	     -5.30905247
      0.28333333	     -0.38762287	      2.32044860	      1.90498216	     -0.39854511	      0.98639272	      0.24029488	     17.08506743	     -4.55999328	      2.25023948	    -62.14725076	    -11.30836153	    -18.02749599	     12.04702051	      9.47830046	      4.51760315	     -7.67567979	    -25.72270271	     -4.59162400	     -5.18780152	     13.08495602	      0.00000000	     -0.00603566	      0.00000000	      4.30847376	     -8.12310046	     -4.81198144	     -5.48430252
      0.28750000	     -0.37892349	      2.14427778	      1.96502554	     -0.39303619	      0.98731091	      0.23966206	     17.72472144	     -4.37665089	      2.10580406	    -61.90579064	    -10.36876115	    -18.36893013	     11.83985042	      8.97883745	      4.35115843	     -7.68610170	    -25.49602483	     -4.61517113	     -5.18726151	     13.19659426	      0.00000000	     -0.00581519	      0.00000000	      4.36163798	     -8.12085144	     -4.57316284	     -5.55724930
      0.29166667	     -0.33324324	      1.93906162	      2.02010521	     -0.38744597	      0.98830308	      0.23913253	     18.27710373	     -4.12133835	      1.99193564	    -61.57024867	     -9.49224525	    -18.77098102	     11.48911046	      8.39775854	      4.13110071	     -7.76083048	    -25.15275786	     -4.56216629	     -5.17110811	     13.39332177	      0.00000000	     -0.00571179	      0.00000000	      4.41638632	     -8.15513560	     -4.29031442	     -5.75871294
      0.29583333	     -0.23775841	      1.72378487	      2.04945632	     -0.38178606	      0.98936060	      0.23855268	     18.74374744	     -3.87002576	      1.85510134	    -61.15676164	     -8.71723601	    -19.20339519	     11.01270803	      7.73122544	      3.91060122	     -7.86455790	    -24.76356752	     -4.51642420	     -5.17107235	     13.59134550	      0.00000000	     -0.00562193	      0.00000000	      4.46046855	     -8.23043401	     -3.98662584	     -5.96637388
      0.30000000	      0.19454417	      1.51733480	      1.98683241	     -0.37593421	      0.99102286	      0.23823035	     18.76593321	     -3.54390211	      1.81757267	    -60.59644503	     -7.94547000	    -19.68389818	      8.78436656	      6.51621937	      3.66693025	     -8.09681337	    -23.86249262	     -4.16369902	     -5.09038831	     13.91099232	      0.00000000	     -0.00569146	      0.00000000	      4.50183938	     -8.67517358	     -3.70202600	     -6.12762643
      0.30416667	      0.16259431	      1.38166071	      2.05507255	     -0.37046683	      0.99181599	      0.23759454	     19.36294814	     -3.40520871	      1.67137149	    -60.11623860	     -7.24391807	    -19.98021876	      8.73287329	      6.09267864	      3.54777163	     -8.11367301	    -23.71761599	     -4.25519942	     -5.11365481	     13.98438979	      0.00000000	     -0.00536002	      0.00000000	      4.48628911	     -8.62168305	     -3.50394016	     -6.19502041
      0.30833333	      0.15695904	      1.10955818	      2.12786482	     -0.36496177	      0.99263865	      0.23707397	     19.88374081	     -3.05925538	      1.54256202	    -59.55231152	     -6.43503042	    -20.39543324	      8.42569328	      5.58906736	      3.25335717	     -8.15097903	    -23.39201468	     -4.19479381	     -5.07846918	     14.19040908	      0.00000000	     -0.00529817	      0.00000000	      4.53990103	     -8.61420092	     -3.14462925	     -6.46969907
